<?xml version="1.0" encoding="UTF-8" standalone="no"?>
<!DOCTYPE svg PUBLIC "-//W3C//DTD SVG 1.1//EN"
 "http://www.w3.org/Graphics/SVG/1.1/DTD/svg11.dtd">
<!-- Generated by graphviz version 2.43.0 (0)
 -->
<!-- Title: sphinx&#45;ext&#45;graphviz Pages: 1 -->
<svg width="517pt" height="549pt"
 viewBox="0.00 0.00 517.22 548.93" xmlns="http://www.w3.org/2000/svg" xmlns:xlink="http://www.w3.org/1999/xlink">
<g id="graph0" class="graph" transform="scale(1 1) rotate(0) translate(4 544.93)">
<title>sphinx&#45;ext&#45;graphviz</title>
<polygon fill="white" stroke="transparent" points="-4,4 -4,-544.93 513.22,-544.93 513.22,4 -4,4"/>
<!-- load_data -->
<g id="node1" class="node">
<title>load_data</title>
<path fill="none" stroke="black" d="M248,-540.93C248,-540.93 12,-540.93 12,-540.93 6,-540.93 0,-534.93 0,-528.93 0,-528.93 0,-516.93 0,-516.93 0,-510.93 6,-504.93 12,-504.93 12,-504.93 248,-504.93 248,-504.93 254,-504.93 260,-510.93 260,-516.93 260,-516.93 260,-528.93 260,-528.93 260,-534.93 254,-540.93 248,-540.93"/>
<text text-anchor="middle" x="130" y="-526.33" font-family="Verdana" font-size="12.00">Load GeoJSON data</text>
<text text-anchor="middle" x="130" y="-513.33" font-family="Verdana" font-size="12.00">(crosswalks, streetlights, road segments)</text>
</g>
<!-- simplify -->
<g id="node2" class="node">
<title>simplify</title>
<path fill="none" stroke="black" d="M262.49,-489.69C262.49,-489.69 99.49,-489.69 99.49,-489.69 93.49,-489.69 87.49,-483.69 87.49,-477.69 87.49,-477.69 87.49,-465.69 87.49,-465.69 87.49,-459.69 93.49,-453.69 99.49,-453.69 99.49,-453.69 262.49,-453.69 262.49,-453.69 268.49,-453.69 274.49,-459.69 274.49,-465.69 274.49,-465.69 274.49,-477.69 274.49,-477.69 274.49,-483.69 268.49,-489.69 262.49,-489.69"/>
<text text-anchor="middle" x="180.99" y="-475.09" font-family="Verdana" font-size="12.00">Simplify crosswalk geometry</text>
<text text-anchor="middle" x="180.99" y="-462.09" font-family="Verdana" font-size="12.00">and decompose edges</text>
</g>
<!-- load_data&#45;&gt;simplify -->
<g id="edge1" class="edge">
<title>load_data&#45;&gt;simplify</title>
<path fill="none" stroke="black" d="M148.12,-504.72C150.52,-502.3 153.03,-499.79 155.52,-497.28"/>
<polygon fill="black" stroke="black" points="158.35,-499.4 162.93,-489.84 153.39,-494.46 158.35,-499.4"/>
</g>
<!-- classify_edges -->
<g id="node3" class="node">
<title>classify_edges</title>
<path fill="none" stroke="black" d="M287.93,-431.58C287.93,-431.58 159.93,-431.58 159.93,-431.58 153.93,-431.58 147.93,-425.58 147.93,-419.58 147.93,-419.58 147.93,-407.58 147.93,-407.58 147.93,-401.58 153.93,-395.58 159.93,-395.58 159.93,-395.58 287.93,-395.58 287.93,-395.58 293.93,-395.58 299.93,-401.58 299.93,-407.58 299.93,-407.58 299.93,-419.58 299.93,-419.58 299.93,-425.58 293.93,-431.58 287.93,-431.58"/>
<text text-anchor="middle" x="223.93" y="-416.98" font-family="Verdana" font-size="12.00">Classify edges</text>
<text text-anchor="middle" x="223.93" y="-403.98" font-family="Verdana" font-size="12.00">(vehicle vs pedestrian)</text>
</g>
<!-- simplify&#45;&gt;classify_edges -->
<g id="edge2" class="edge">
<title>simplify&#45;&gt;classify_edges</title>
<path fill="none" stroke="black" d="M194.34,-453.62C197.54,-449.29 201.02,-444.58 204.44,-439.96"/>
<polygon fill="black" stroke="black" points="207.31,-441.96 210.44,-431.84 201.68,-437.8 207.31,-441.96"/>
</g>
<!-- compute_centers -->
<g id="node4" class="node">
<title>compute_centers</title>
<path fill="none" stroke="black" d="M345.69,-373.23C345.69,-373.23 187.69,-373.23 187.69,-373.23 181.69,-373.23 175.69,-367.23 175.69,-361.23 175.69,-361.23 175.69,-349.23 175.69,-349.23 175.69,-343.23 181.69,-337.23 187.69,-337.23 187.69,-337.23 345.69,-337.23 345.69,-337.23 351.69,-337.23 357.69,-343.23 357.69,-349.23 357.69,-349.23 357.69,-361.23 357.69,-361.23 357.69,-367.23 351.69,-373.23 345.69,-373.23"/>
<text text-anchor="middle" x="266.69" y="-352.13" font-family="Verdana" font-size="12.00">Compute crosswalk centers</text>
</g>
<!-- classify_edges&#45;&gt;compute_centers -->
<g id="edge3" class="edge">
<title>classify_edges&#45;&gt;compute_centers</title>
<path fill="none" stroke="black" d="M237.22,-395.44C240.41,-391.09 243.88,-386.36 247.28,-381.72"/>
<polygon fill="black" stroke="black" points="250.17,-383.7 253.25,-373.57 244.52,-379.56 250.17,-383.7"/>
</g>
<!-- detect_direction -->
<g id="node5" class="node">
<title>detect_direction</title>
<path fill="none" stroke="black" d="M414.43,-310.02C414.43,-310.02 189.43,-310.02 189.43,-310.02 183.43,-310.02 177.43,-304.02 177.43,-298.02 177.43,-298.02 177.43,-286.02 177.43,-286.02 177.43,-280.02 183.43,-274.02 189.43,-274.02 189.43,-274.02 414.43,-274.02 414.43,-274.02 420.43,-274.02 426.43,-280.02 426.43,-286.02 426.43,-286.02 426.43,-298.02 426.43,-298.02 426.43,-304.02 420.43,-310.02 414.43,-310.02"/>
<text text-anchor="middle" x="301.93" y="-288.92" font-family="Verdana" font-size="12.00">Detect vehicle direction at each center</text>
</g>
<!-- compute_centers&#45;&gt;detect_direction -->
<g id="edge4" class="edge">
<title>compute_centers&#45;&gt;detect_direction</title>
<path fill="none" stroke="black" d="M276.88,-336.95C279.98,-331.4 283.45,-325.17 286.8,-319.17"/>
<polygon fill="black" stroke="black" points="290.07,-320.48 291.88,-310.04 283.96,-317.07 290.07,-320.48"/>
</g>
<!-- find_streetlights -->
<g id="node6" class="node">
<title>find_streetlights</title>
<path fill="none" stroke="black" d="M426.08,-242.96C426.08,-242.96 232.08,-242.96 232.08,-242.96 226.08,-242.96 220.08,-236.96 220.08,-230.96 220.08,-230.96 220.08,-218.96 220.08,-218.96 220.08,-212.96 226.08,-206.96 232.08,-206.96 232.08,-206.96 426.08,-206.96 426.08,-206.96 432.08,-206.96 438.08,-212.96 438.08,-218.96 438.08,-218.96 438.08,-230.96 438.08,-230.96 438.08,-236.96 432.08,-242.96 426.08,-242.96"/>
<text text-anchor="middle" x="329.08" y="-221.86" font-family="Verdana" font-size="12.00">Find streetlights near each center</text>
</g>
<!-- detect_direction&#45;&gt;find_streetlights -->
<g id="edge5" class="edge">
<title>detect_direction&#45;&gt;find_streetlights</title>
<path fill="none" stroke="black" d="M309.35,-273.7C311.99,-267.19 315.01,-259.72 317.89,-252.61"/>
<polygon fill="black" stroke="black" points="321.16,-253.85 321.67,-243.27 314.68,-251.22 321.16,-253.85"/>
</g>
<!-- classify_sides -->
<g id="node7" class="node">
<title>classify_sides</title>
<path fill="none" stroke="black" d="M450.18,-174.18C450.18,-174.18 252.18,-174.18 252.18,-174.18 246.18,-174.18 240.18,-168.18 240.18,-162.18 240.18,-162.18 240.18,-150.18 240.18,-150.18 240.18,-144.18 246.18,-138.18 252.18,-138.18 252.18,-138.18 450.18,-138.18 450.18,-138.18 456.18,-138.18 462.18,-144.18 462.18,-150.18 462.18,-150.18 462.18,-162.18 462.18,-162.18 462.18,-168.18 456.18,-174.18 450.18,-174.18"/>
<text text-anchor="middle" x="351.18" y="-159.58" font-family="Verdana" font-size="12.00">Classify streetlights by vehicle side</text>
<text text-anchor="middle" x="351.18" y="-146.58" font-family="Verdana" font-size="12.00">and append distance info</text>
</g>
<!-- find_streetlights&#45;&gt;classify_sides -->
<g id="edge6" class="edge">
<title>find_streetlights&#45;&gt;classify_sides</title>
<path fill="none" stroke="black" d="M334.89,-206.89C337.13,-199.92 339.74,-191.78 342.21,-184.08"/>
<polygon fill="black" stroke="black" points="345.61,-184.96 345.34,-174.37 338.95,-182.82 345.61,-184.96"/>
</g>
<!-- compute_heuristics -->
<g id="node8" class="node">
<title>compute_heuristics</title>
<path fill="none" stroke="black" d="M497.22,-106.82C497.22,-106.82 257.22,-106.82 257.22,-106.82 251.22,-106.82 245.22,-100.82 245.22,-94.82 245.22,-94.82 245.22,-82.82 245.22,-82.82 245.22,-76.82 251.22,-70.82 257.22,-70.82 257.22,-70.82 497.22,-70.82 497.22,-70.82 503.22,-70.82 509.22,-76.82 509.22,-82.82 509.22,-82.82 509.22,-94.82 509.22,-94.82 509.22,-100.82 503.22,-106.82 497.22,-106.82"/>
<text text-anchor="middle" x="377.22" y="-85.72" font-family="Verdana" font-size="12.00">Compute brightness &amp; contrast heuristics</text>
</g>
<!-- classify_sides&#45;&gt;compute_heuristics -->
<g id="edge7" class="edge">
<title>classify_sides&#45;&gt;compute_heuristics</title>
<path fill="none" stroke="black" d="M358.16,-138.13C360.73,-131.48 363.7,-123.79 366.52,-116.5"/>
<polygon fill="black" stroke="black" points="369.88,-117.51 370.22,-106.92 363.35,-114.99 369.88,-117.51"/>
</g>
<!-- aggregate_results -->
<g id="node9" class="node">
<title>aggregate_results</title>
<path fill="none" stroke="black" d="M474.5,-36C474.5,-36 308.5,-36 308.5,-36 302.5,-36 296.5,-30 296.5,-24 296.5,-24 296.5,-12 296.5,-12 296.5,-6 302.5,0 308.5,0 308.5,0 474.5,0 474.5,0 480.5,0 486.5,-6 486.5,-12 486.5,-12 486.5,-24 486.5,-24 486.5,-30 480.5,-36 474.5,-36"/>
<text text-anchor="middle" x="391.5" y="-14.9" font-family="Verdana" font-size="12.00">Aggregate and store as table</text>
</g>
<!-- compute_heuristics&#45;&gt;aggregate_results -->
<g id="edge8" class="edge">
<title>compute_heuristics&#45;&gt;aggregate_results</title>
<path fill="none" stroke="black" d="M380.89,-70.58C382.38,-63.2 384.14,-54.52 385.78,-46.35"/>
<polygon fill="black" stroke="black" points="389.24,-46.92 387.79,-36.42 382.38,-45.53 389.24,-46.92"/>
</g>
</g>
</svg>
